<svg xmlns="http://www.w3.org/2000/svg" viewBox="0 0 32 32" width="32" height="32"><rect width="32" height="32" rx="8" fill="#b85c38"></rect><g fill="#fff">
    <path transform="matrix(0.0215,0,0,-0.0215,3.1,23.5)" d="M15 0L182 700H430L597 0H459L425 150H187L153 0ZM215 276H396L315 634H297Z"></path>
    <path transform="matrix(0.0215,0,0,-0.0215,16.4,23.5)" d="M308 -14Q188 -14 118 59.5Q48 133 48 272V428Q48 563 118 638.5Q188 714 308 714Q433 714 498.5 644Q564 574 564 454V436H432V454Q432 487 421 519.5Q410 552 383 573Q356 594 308 594Q264 594 235.5 572.5Q207 551 193.5 515.5Q180 480 180 438V262Q180 194 209 150Q238 106 308 106Q359 106 386 126Q413 146 422.5 178Q432 210 432 246V264H564V246Q564 122 498.5 54Q433 -14 308 -14Z"></path>
  </g><style>@media (prefers-color-scheme: light) { :root { filter: none; } }
@media (prefers-color-scheme: dark) { :root { filter: none; } }
</style></svg>